<svg width="14" height="14" viewBox="0 0 14 14" fill="none" xmlns="http://www.w3.org/2000/svg">
<path fill-rule="evenodd" clip-rule="evenodd" d="M6.58744 2.50423C6.35963 2.73203 6.35963 3.10138 6.58744 3.32919L9.67496 6.41671H2.91659C2.59442 6.41671 2.33325 6.67787 2.33325 7.00004C2.33325 7.32221 2.59442 7.58337 2.91659 7.58337H9.67496L6.58744 10.6709C6.35963 10.8987 6.35963 11.268 6.58744 11.4959C6.81525 11.7237 7.18459 11.7237 7.4124 11.4959L11.4957 7.41252C11.5517 7.35659 11.5939 7.29213 11.6223 7.22333C11.6497 7.15729 11.6653 7.08512 11.6665 7.00946M11.6223 6.77675C11.5939 6.70795 11.5517 6.64349 11.4957 6.58756L7.4124 2.50423C7.18459 2.27642 6.81525 2.27642 6.58744 2.50423M11.6223 6.77675C11.6497 6.84279 11.6653 6.91496 11.6665 6.99062L11.6223 6.77675Z" fill="black"/>
<mask id="mask0_2_137" style="mask-type:alpha" maskUnits="userSpaceOnUse" x="2" y="2" width="10" height="10">
<path fill-rule="evenodd" clip-rule="evenodd" d="M6.58744 2.50423C6.35963 2.73203 6.35963 3.10138 6.58744 3.32919L9.67496 6.41671H2.91659C2.59442 6.41671 2.33325 6.67787 2.33325 7.00004C2.33325 7.32221 2.59442 7.58337 2.91659 7.58337H9.67496L6.58744 10.6709C6.35963 10.8987 6.35963 11.268 6.58744 11.4959C6.81525 11.7237 7.18459 11.7237 7.4124 11.4959L11.4957 7.41252C11.5517 7.35659 11.5939 7.29213 11.6223 7.22333C11.6497 7.15729 11.6653 7.08512 11.6665 7.00946M11.6223 6.77675C11.5939 6.70795 11.5517 6.64349 11.4957 6.58756L7.4124 2.50423C7.18459 2.27642 6.81525 2.27642 6.58744 2.50423M11.6223 6.77675C11.6497 6.84279 11.6653 6.91496 11.6665 6.99062L11.6223 6.77675Z" fill="white"/>
</mask>
<g mask="url(#mask0_2_137)">
<rect width="14" height="14" fill="white"/>
<rect width="14" height="14" fill="white"/>
</g>
</svg>
