<svg width="28" height="28" viewBox="0 0 28 28" fill="none" xmlns="http://www.w3.org/2000/svg">
<path fill-rule="evenodd" clip-rule="evenodd" d="M4.75527 13.5534C4.81221 13.4158 4.8966 13.2869 5.00846 13.175L13.1751 5.00838C13.6307 4.55277 14.3694 4.55277 14.825 5.00838C15.2807 5.46399 15.2807 6.20268 14.825 6.65829L8.65 12.8333H22.1667C22.8111 12.8333 23.3334 13.3557 23.3334 14C23.3334 14.6443 22.8111 15.1667 22.1667 15.1667H8.65L14.825 21.3417C15.2807 21.7973 15.2807 22.536 14.825 22.9916C14.3694 23.4472 13.6307 23.4472 13.1751 22.9916L5.00962 14.8261C5.00669 14.8232 5.00377 14.8203 5.00088 14.8173C4.89278 14.7072 4.81091 14.5811 4.75527 14.4466C4.69823 14.309 4.66675 14.1582 4.66675 14C4.66675 13.8418 4.69823 13.691 4.75527 13.5534Z" fill="black"/>
<mask id="mask0_2_438" style="mask-type:alpha" maskUnits="userSpaceOnUse" x="4" y="4" width="20" height="20">
<path fill-rule="evenodd" clip-rule="evenodd" d="M4.75527 13.5534C4.81221 13.4158 4.8966 13.2869 5.00846 13.175L13.1751 5.00838C13.6307 4.55277 14.3694 4.55277 14.825 5.00838C15.2807 5.46399 15.2807 6.20268 14.825 6.65829L8.65 12.8333H22.1667C22.8111 12.8333 23.3334 13.3557 23.3334 14C23.3334 14.6443 22.8111 15.1667 22.1667 15.1667H8.65L14.825 21.3417C15.2807 21.7973 15.2807 22.536 14.825 22.9916C14.3694 23.4472 13.6307 23.4472 13.1751 22.9916L5.00962 14.8261C5.00669 14.8232 5.00377 14.8203 5.00088 14.8173C4.89278 14.7072 4.81091 14.5811 4.75527 14.4466C4.69823 14.309 4.66675 14.1582 4.66675 14C4.66675 13.8418 4.69823 13.691 4.75527 13.5534Z" fill="white"/>
</mask>
<g mask="url(#mask0_2_438)">
<rect width="28" height="28" fill="#6E6B7B"/>
</g>
</svg>
