<svg width="28" height="28" viewBox="0 0 28 28" fill="none" xmlns="http://www.w3.org/2000/svg">
<path fill-rule="evenodd" clip-rule="evenodd" d="M13.175 5.00837C12.7194 5.46398 12.7194 6.20267 13.175 6.65828L19.35 12.8333H5.83329C5.18896 12.8333 4.66663 13.3557 4.66663 14C4.66663 14.6443 5.18896 15.1667 5.83329 15.1667H19.35L13.175 21.3417C12.7194 21.7973 12.7194 22.536 13.175 22.9916C13.6306 23.4472 14.3693 23.4472 14.8249 22.9916L22.9916 14.8249C23.2148 14.6017 23.3287 14.3106 23.3332 14.018C23.3333 14.006 23.3333 13.994 23.3332 13.982C23.3309 13.8313 23.3 13.6877 23.2459 13.556C23.1889 13.4175 23.1042 13.2876 22.9916 13.175L14.8249 5.00837C14.3693 4.55275 13.6306 4.55275 13.175 5.00837Z" fill="black"/>
<mask id="mask0_2_458" style="mask-type:alpha" maskUnits="userSpaceOnUse" x="4" y="4" width="20" height="20">
<path fill-rule="evenodd" clip-rule="evenodd" d="M13.175 5.00837C12.7194 5.46398 12.7194 6.20267 13.175 6.65828L19.35 12.8333H5.83329C5.18896 12.8333 4.66663 13.3557 4.66663 14C4.66663 14.6443 5.18896 15.1667 5.83329 15.1667H19.35L13.175 21.3417C12.7194 21.7973 12.7194 22.536 13.175 22.9916C13.6306 23.4472 14.3693 23.4472 14.8249 22.9916L22.9916 14.8249C23.2148 14.6017 23.3287 14.3106 23.3332 14.018C23.3333 14.006 23.3333 13.994 23.3332 13.982C23.3309 13.8313 23.3 13.6877 23.2459 13.556C23.1889 13.4175 23.1042 13.2876 22.9916 13.175L14.8249 5.00837C14.3693 4.55275 13.6306 4.55275 13.175 5.00837Z" fill="white"/>
</mask>
<g mask="url(#mask0_2_458)">
<rect width="28" height="28" fill="#6E6B7B"/>
</g>
</svg>
