<svg width="16" height="15" viewBox="0 0 16 15" fill="none" xmlns="http://www.w3.org/2000/svg">
<path fill-rule="evenodd" clip-rule="evenodd" d="M7.84018 0.705566C4.07014 0.705566 1.04175 3.73068 1.04175 7.49663C1.04175 11.2626 4.07014 14.2877 7.84018 14.2877C11.6102 14.2877 14.6386 11.2626 14.6386 7.49663C14.6386 3.73068 11.6102 0.705566 7.84018 0.705566ZM7.8403 13.0531C4.7501 13.0531 2.27795 10.5837 2.27795 7.49682C2.27795 4.40997 4.7501 1.94049 7.8403 1.94049C10.9305 1.94049 13.4027 4.40997 13.4027 7.49682C13.4027 10.5837 10.9305 13.0531 7.8403 13.0531ZM10.1269 9.78109C10.3741 9.53414 10.3741 9.16372 10.1269 8.91677L8.45822 7.24987V3.7926C8.45822 3.42218 8.211 3.17523 7.84018 3.17523C7.46935 3.17523 7.22214 3.42218 7.22214 3.7926V7.49682C7.22214 7.68203 7.28394 7.80551 7.40755 7.92898L9.26167 9.78109C9.38527 9.90456 9.50888 9.9663 9.69429 9.9663C9.87971 9.9663 10.0033 9.90456 10.1269 9.78109Z" fill="black"/>
<mask id="mask0_2_339" style="mask-type:alpha" maskUnits="userSpaceOnUse" x="1" y="0" width="14" height="15">
<path fill-rule="evenodd" clip-rule="evenodd" d="M7.84018 0.705566C4.07014 0.705566 1.04175 3.73068 1.04175 7.49663C1.04175 11.2626 4.07014 14.2877 7.84018 14.2877C11.6102 14.2877 14.6386 11.2626 14.6386 7.49663C14.6386 3.73068 11.6102 0.705566 7.84018 0.705566ZM7.8403 13.0531C4.7501 13.0531 2.27795 10.5837 2.27795 7.49682C2.27795 4.40997 4.7501 1.94049 7.8403 1.94049C10.9305 1.94049 13.4027 4.40997 13.4027 7.49682C13.4027 10.5837 10.9305 13.0531 7.8403 13.0531ZM10.1269 9.78109C10.3741 9.53414 10.3741 9.16372 10.1269 8.91677L8.45822 7.24987V3.7926C8.45822 3.42218 8.211 3.17523 7.84018 3.17523C7.46935 3.17523 7.22214 3.42218 7.22214 3.7926V7.49682C7.22214 7.68203 7.28394 7.80551 7.40755 7.92898L9.26167 9.78109C9.38527 9.90456 9.50888 9.9663 9.69429 9.9663C9.87971 9.9663 10.0033 9.90456 10.1269 9.78109Z" fill="white"/>
</mask>
<g mask="url(#mask0_2_339)">
<rect x="0.423828" y="0.0881958" width="14.8329" height="14.8169" fill="#6E6B7B"/>
</g>
</svg>
