<svg width="16" height="16" viewBox="0 0 16 16" fill="none" xmlns="http://www.w3.org/2000/svg">
<path fill-rule="evenodd" clip-rule="evenodd" d="M13.7735 5.56176L8.21113 1.24507C7.96391 1.06007 7.65489 1.06007 7.46948 1.24507L1.90713 5.56176C1.72172 5.68509 1.65991 5.87009 1.65991 6.05509V12.8385C1.65991 13.8868 2.46336 14.6885 3.51403 14.6885H12.1666C13.2172 14.6885 14.0207 13.8868 14.0207 12.8385V6.05509C14.0207 5.87009 13.9589 5.68509 13.7735 5.56176ZM9.07652 13.4555H6.60437V8.52219H9.07652V13.4555ZM12.1667 13.4556C12.5375 13.4556 12.7847 13.209 12.7847 12.839V6.36395L7.84044 2.54061L2.89612 6.36395V12.839C2.89612 13.209 3.14334 13.4556 3.51416 13.4556H5.36828V7.90563C5.36828 7.53563 5.61549 7.28896 5.98632 7.28896H9.69455C10.0654 7.28896 10.3126 7.53563 10.3126 7.90563V13.4556H12.1667Z" fill="black"/>
<mask id="mask0_2_328" style="mask-type:alpha" maskUnits="userSpaceOnUse" x="1" y="1" width="14" height="14">
<path fill-rule="evenodd" clip-rule="evenodd" d="M13.7735 5.56176L8.21113 1.24507C7.96391 1.06007 7.65489 1.06007 7.46948 1.24507L1.90713 5.56176C1.72172 5.68509 1.65991 5.87009 1.65991 6.05509V12.8385C1.65991 13.8868 2.46336 14.6885 3.51403 14.6885H12.1666C13.2172 14.6885 14.0207 13.8868 14.0207 12.8385V6.05509C14.0207 5.87009 13.9589 5.68509 13.7735 5.56176ZM9.07652 13.4555H6.60437V8.52219H9.07652V13.4555ZM12.1667 13.4556C12.5375 13.4556 12.7847 13.209 12.7847 12.839V6.36395L7.84044 2.54061L2.89612 6.36395V12.839C2.89612 13.209 3.14334 13.4556 3.51416 13.4556H5.36828V7.90563C5.36828 7.53563 5.61549 7.28896 5.98632 7.28896H9.69455C10.0654 7.28896 10.3126 7.53563 10.3126 7.90563V13.4556H12.1667Z" fill="white"/>
</mask>
<g mask="url(#mask0_2_328)">
<rect x="0.423828" y="0.488953" width="14.8329" height="14.8169" fill="#6E6B7B"/>
</g>
</svg>
