<svg width="24" height="24" viewBox="0 0 24 24" fill="none" xmlns="http://www.w3.org/2000/svg">
<path fill-rule="evenodd" clip-rule="evenodd" d="M23.3643 4.13307C22.7392 2.52428 21.4665 1.25216 19.8552 0.630738C18.9236 0.280772 17.9387 0.093147 16.9418 0.0718563C15.6584 0.0159681 15.2519 0 11.9973 0C8.74278 0 8.32563 0 7.05287 0.0718563C6.05864 0.0918164 5.07374 0.279441 4.14216 0.630738C2.52954 1.25216 1.25677 2.52428 0.633052 4.13307C0.282541 5.06454 0.0946246 6.04657 0.0746335 7.04192C0.0173256 8.32202 0 8.72788 0 11.9787C0 15.2282 0 15.642 0.0746335 16.9155C0.0946246 17.9108 0.282541 18.8929 0.633052 19.8257C1.25811 21.4331 2.53088 22.7053 4.14349 23.328C5.07108 23.69 6.05598 23.8949 7.05553 23.9268C8.33896 23.9827 8.74545 24 12 24C15.2546 24 15.6717 24 16.9445 23.9268C17.94 23.9069 18.9249 23.7179 19.8578 23.3693C21.4691 22.7452 22.7419 21.4744 23.3669 19.8656C23.7175 18.9341 23.9054 17.9521 23.9254 16.9568C23.9827 15.6766 24 15.2708 24 12.02C24 8.76913 24 8.35662 23.9254 7.08317C23.908 6.07452 23.7215 5.07518 23.3643 4.13307ZM21.741 16.817C21.7317 17.5835 21.5931 18.3433 21.3265 19.0632C20.92 20.1104 20.0924 20.9381 19.0449 21.34C18.3319 21.6048 17.5802 21.7432 16.8192 21.7538C15.5531 21.8124 15.1959 21.827 11.9494 21.827C8.70013 21.827 8.36828 21.827 7.07819 21.7538C6.31986 21.7445 5.56553 21.6048 4.85384 21.34C3.80231 20.9395 2.96935 20.1118 2.56286 19.0632C2.30164 18.3526 2.16037 17.6008 2.14838 16.8423C2.09107 15.5782 2.07774 15.2216 2.07774 11.98C2.07774 8.73719 2.07774 8.40586 2.14838 7.11643C2.15771 6.34997 2.29631 5.59148 2.56286 4.87159C2.96935 3.82169 3.80231 2.99534 4.85384 2.59348C5.56553 2.33001 6.31986 2.19029 7.07819 2.17964C8.34562 2.12242 8.70147 2.10645 11.9494 2.10645C15.1972 2.10645 15.5304 2.10645 16.8192 2.17964C17.5802 2.18896 18.3319 2.32868 19.0449 2.59348C20.0924 2.99667 20.92 3.82435 21.3265 4.87159C21.5877 5.58217 21.729 6.334 21.741 7.09248C21.7983 8.35795 21.813 8.71324 21.813 11.9561C21.813 15.1976 21.813 15.5462 21.7557 16.8184H21.741V16.817ZM20 5.5C20 6.32843 19.3284 7 18.5 7C17.6716 7 17 6.32843 17 5.5C17 4.67157 17.6716 4 18.5 4C19.3284 4 20 4.67157 20 5.5ZM6 11.9994C6 8.68628 8.68527 6 12 6C15.3121 6 18 8.68628 18 11.9994C18 15.3137 15.3121 18 12 18C8.68527 18 6 15.3137 6 11.9994ZM8.10123 12.0006C8.10123 14.1523 9.84685 15.8977 12 15.8977C14.1531 15.8977 15.8962 14.1523 15.8962 12.0006C15.8962 9.84773 14.1531 8.1036 12 8.1036C9.84685 8.1036 8.10123 9.84773 8.10123 12.0006Z" fill="white"/>
</svg>
