<svg width="24" height="24" viewBox="0 0 24 24" fill="none" xmlns="http://www.w3.org/2000/svg">
<path fill-rule="evenodd" clip-rule="evenodd" d="M3.76794 6.56469C5.29434 6.56469 6.53173 5.3273 6.53173 3.8009C6.53173 2.2745 5.29434 1.03711 3.76794 1.03711C2.24154 1.03711 1.00415 2.2745 1.00415 3.8009C1.00415 5.3273 2.24154 6.56469 3.76794 6.56469ZM9.14141 8.659V23.9925H13.9023V16.4097C13.9023 14.4089 14.2787 12.4712 16.7595 12.4712C19.2063 12.4712 19.2366 14.7588 19.2366 16.5361V23.9937H23.9999V15.5849C23.9999 11.4544 23.1107 8.28006 18.2829 8.28006C15.965 8.28006 14.4113 9.55206 13.7759 10.7558H13.7115V8.659H9.14141ZM1.3831 8.659H6.15152V23.9925H1.3831V8.659Z" fill="white"/>
</svg>
