<svg width="17" height="17" viewBox="0 0 17 17" fill="none" xmlns="http://www.w3.org/2000/svg">
<path fill-rule="evenodd" clip-rule="evenodd" d="M3.71586 1.90251H13.3194C14.4855 1.90251 15.3773 2.79384 15.3773 3.95941V10.8158C15.3773 11.9813 14.4855 12.8727 13.3194 12.8727H5.36218L2.8241 15.4095C2.68691 15.5466 2.54972 15.6152 2.34393 15.6152C2.27533 15.6152 2.13814 15.6152 2.06954 15.5466C1.79515 15.4781 1.65796 15.2038 1.65796 14.9296V3.95941C1.65796 2.79384 2.54972 1.90251 3.71586 1.90251ZM13.3174 11.5025C13.7289 11.5025 14.0033 11.2282 14.0033 10.8168V3.9605C14.0033 3.54912 13.7289 3.27487 13.3174 3.27487H3.71383C3.30225 3.27487 3.02786 3.54912 3.02786 3.9605V13.2851L4.60558 11.7082C4.74278 11.571 4.87997 11.5025 5.08576 11.5025H13.3174Z" fill="black"/>
<mask id="mask0_2_352" style="mask-type:alpha" maskUnits="userSpaceOnUse" x="1" y="1" width="15" height="15">
<path fill-rule="evenodd" clip-rule="evenodd" d="M3.71586 1.90251H13.3194C14.4855 1.90251 15.3773 2.79384 15.3773 3.95941V10.8158C15.3773 11.9813 14.4855 12.8727 13.3194 12.8727H5.36218L2.8241 15.4095C2.68691 15.5466 2.54972 15.6152 2.34393 15.6152C2.27533 15.6152 2.13814 15.6152 2.06954 15.5466C1.79515 15.4781 1.65796 15.2038 1.65796 14.9296V3.95941C1.65796 2.79384 2.54972 1.90251 3.71586 1.90251ZM13.3174 11.5025C13.7289 11.5025 14.0033 11.2282 14.0033 10.8168V3.9605C14.0033 3.54912 13.7289 3.27487 13.3174 3.27487H3.71383C3.30225 3.27487 3.02786 3.54912 3.02786 3.9605V13.2851L4.60558 11.7082C4.74278 11.571 4.87997 11.5025 5.08576 11.5025H13.3174Z" fill="white"/>
</mask>
<g mask="url(#mask0_2_352)">
<rect x="0.28418" y="0.532227" width="16.4632" height="16.4552" fill="#388186"/>
</g>
</svg>
