<svg width="24" height="24" viewBox="0 0 24 24" fill="none" xmlns="http://www.w3.org/2000/svg">
<path fill-rule="evenodd" clip-rule="evenodd" d="M17.2 15.8L21.7 20.3C22.1 20.7 22.1 21.3 21.7 21.7C21.5 21.9 21.2 22 21 22C20.8 22 20.5 21.9 20.3 21.7L15.8 17.2C14.3 18.3 12.5 19 10.5 19C5.8 19 2 15.2 2 10.5C2 5.8 5.8 2 10.5 2C15.2 2 19 5.8 19 10.5C19 12.5 18.3 14.4 17.2 15.8ZM10.5 3.99993C6.90002 3.99993 4.00002 6.89993 4.00002 10.4999C4.00002 14.0999 6.90002 16.9999 10.5 16.9999C12.3 16.9999 13.9 16.2999 15.1 15.0999C16.3 13.8999 17 12.2999 17 10.4999C17 6.89993 14.1 3.99993 10.5 3.99993Z" fill="black"/>
<mask id="mask0_2_142" style="mask-type:alpha" maskUnits="userSpaceOnUse" x="2" y="2" width="20" height="20">
<path fill-rule="evenodd" clip-rule="evenodd" d="M17.2 15.8L21.7 20.3C22.1 20.7 22.1 21.3 21.7 21.7C21.5 21.9 21.2 22 21 22C20.8 22 20.5 21.9 20.3 21.7L15.8 17.2C14.3 18.3 12.5 19 10.5 19C5.8 19 2 15.2 2 10.5C2 5.8 5.8 2 10.5 2C15.2 2 19 5.8 19 10.5C19 12.5 18.3 14.4 17.2 15.8ZM10.5 3.99993C6.90002 3.99993 4.00002 6.89993 4.00002 10.4999C4.00002 14.0999 6.90002 16.9999 10.5 16.9999C12.3 16.9999 13.9 16.2999 15.1 15.0999C16.3 13.8999 17 12.2999 17 10.4999C17 6.89993 14.1 3.99993 10.5 3.99993Z" fill="white"/>
</mask>
<g mask="url(#mask0_2_142)">
<rect width="24" height="24" fill="#6E6B7B"/>
</g>
</svg>
