<svg width="15" height="15" viewBox="0 0 15 15" fill="none" xmlns="http://www.w3.org/2000/svg">
<path d="M13.8983 5.50154C13.8379 5.25499 13.657 5.13172 13.4157 5.07008L9.55494 4.51535L7.80554 0.940386C7.62457 0.508926 6.90068 0.508926 6.71971 0.940386L4.97032 4.45371L1.16991 5.07008C0.928611 5.07008 0.74764 5.25499 0.626992 5.50154C0.566668 5.74809 0.626992 5.99464 0.807963 6.11791L3.58287 8.89159L2.9193 12.8364C2.85898 13.0829 2.97963 13.3295 3.1606 13.4527C3.34157 13.576 3.58287 13.6377 3.82416 13.5144L7.26263 11.6653L10.7011 13.5144C10.8217 13.5144 10.8821 13.5144 11.0027 13.5144C11.1234 13.5144 11.244 13.4527 11.3647 13.3911C11.5456 13.2678 11.6663 13.0213 11.606 12.7747L10.9424 8.82995L13.7173 6.05628C13.8983 5.933 13.9586 5.68645 13.8983 5.50154Z" fill="black"/>
<mask id="mask0_2_319" style="mask-type:alpha" maskUnits="userSpaceOnUse" x="0" y="0" width="14" height="14">
<path d="M13.8983 5.50154C13.8379 5.25499 13.657 5.13172 13.4157 5.07008L9.55494 4.51535L7.80554 0.940386C7.62457 0.508926 6.90068 0.508926 6.71971 0.940386L4.97032 4.45371L1.16991 5.07008C0.928611 5.07008 0.74764 5.25499 0.626992 5.50154C0.566668 5.74809 0.626992 5.99464 0.807963 6.11791L3.58287 8.89159L2.9193 12.8364C2.85898 13.0829 2.97963 13.3295 3.1606 13.4527C3.34157 13.576 3.58287 13.6377 3.82416 13.5144L7.26263 11.6653L10.7011 13.5144C10.8217 13.5144 10.8821 13.5144 11.0027 13.5144C11.1234 13.5144 11.244 13.4527 11.3647 13.3911C11.5456 13.2678 11.6663 13.0213 11.606 12.7747L10.9424 8.82995L13.7173 6.05628C13.8983 5.933 13.9586 5.68645 13.8983 5.50154Z" fill="white"/>
</mask>
<g mask="url(#mask0_2_319)">
<rect width="14.5271" height="14.8169" fill="#FF9F43"/>
</g>
</svg>
