<svg width="24" height="24" viewBox="0 0 24 24" fill="none" xmlns="http://www.w3.org/2000/svg">
<path fill-rule="evenodd" clip-rule="evenodd" d="M21.1596 6.51066C21.1752 6.72066 21.1752 6.92946 21.1752 7.13826C21.1752 13.5283 16.3116 20.8915 7.4232 20.8915C4.6848 20.8915 2.1408 20.0983 0 18.7207C0.3888 18.7651 0.7632 18.7807 1.1676 18.7807C3.4272 18.7807 5.5068 18.0175 7.1688 16.7155C5.0436 16.6711 3.2628 15.2791 2.6484 13.3639C2.9472 13.4083 3.2472 13.4383 3.5616 13.4383C3.9948 13.4383 4.4304 13.3783 4.8348 13.2739C2.6184 12.8251 0.9588 10.8799 0.9588 8.53026V8.47026C1.6032 8.82906 2.3508 9.05346 3.1428 9.08346C1.8408 8.21706 0.9876 6.73506 0.9876 5.05866C0.9876 4.16106 1.2264 3.33786 1.6452 2.62026C4.0248 5.55186 7.602 7.46826 11.6124 7.67826C11.538 7.31826 11.4924 6.94506 11.4924 6.57066C11.4924 3.90666 13.6476 1.73706 16.326 1.73706C17.718 1.73706 18.9744 2.32026 19.8576 3.26346C20.9496 3.05346 21.996 2.64906 22.9248 2.09586C22.566 3.21786 21.8016 4.16106 20.7996 4.75986C21.7728 4.65426 22.716 4.38546 23.5824 4.01106C22.9248 4.96866 22.1028 5.82186 21.1596 6.51066Z" fill="white"/>
</svg>
